<?xml version="1.0" standalone="no"?><!-- Generator: Gravit.io --><svg xmlns="http://www.w3.org/2000/svg" xmlns:xlink="http://www.w3.org/1999/xlink" style="isolation:isolate" viewBox="0 0 64 64" width="64" height="64"><defs><clipPath id="_clipPath_Mk0CPhzu7PZOHSQpAAeQEugRteUkKDnt"><rect width="64" height="64"/></clipPath></defs><g clip-path="url(#_clipPath_Mk0CPhzu7PZOHSQpAAeQEugRteUkKDnt)"><rect x="0" y="0" width="64" height="64" transform="matrix(1,0,0,1,0,0)" fill="rgb(33,33,33)"/><g><path d=" M 19.979 15.483 L 19.979 7.97 L 44.021 32.012 L 19.979 56.053 L 19.979 48.54 L 36.508 32.012 L 19.979 15.483 Z " fill="rgb(255,255,255)"/><path d=" M 20.312 13.259 L 15 7.947 L 42.896 7.947 C 46.213 7.947 48.914 10.64 48.923 13.957 L 49 41.947 L 43.687 36.634 L 43.687 13.259 L 20.312 13.259 Z " fill="rgb(255,255,255)"/><path d=" M 20.313 50.741 L 15 56.053 L 42.99 56.053 C 46.307 56.053 49 53.36 49 50.043 L 49 22.053 L 43.688 27.366 L 43.687 50.741 L 20.313 50.741 Z " fill="rgb(255,255,255)"/><path d=" M 20.026 27.303 L 20.026 19.79 L 32 31.764 L 19.979 43.785 L 19.979 36.272 L 24.487 31.764 L 20.026 27.303 Z " fill="rgb(255,255,255)"/></g></g></svg>